<svg xmlns="http://www.w3.org/2000/svg" viewBox="0 0 1728 1296" style="enable-background:new 0 0 1728 1296" xml:space="preserve"><path d="M871.46 1024.41c.26.1.52.21.78.31-.27-.1-.52-.2-.78-.31zM867.66 1022.9c-52.86-21.9-94.04-63.07-115.96-115.94l-.25.1c22.66 54.6 65.44 94.88 116.21 115.84zM880.3 1049.78h.13c-5.41-1.66-10.76-3.52-16.03-5.57 5.26 2.05 10.57 3.9 15.9 5.57zM1167.08 734.8 962.44 241.08h-22.76l170.85 412.17c24.04 22.55 43.23 50.16 56.23 81.53 11.94 28.8 17.99 59.08 17.99 90.02 0 95.53-57.03 180.9-145.28 217.48-6.89 2.86-13.84 5.34-20.83 7.5h.39c6.98-2.17 13.92-4.66 20.74-7.5 119.88-49.67 176.98-187.61 127.31-307.48zM1018.65 1049.78H880.43c43.9 13.5 91.92 14.3 138.22 0zM871.46 1024.41c-1.27-.5-2.54-1-3.8-1.52.02.01.03.01.05.02 1.24.52 2.49 1.01 3.75 1.5z"/><path d="M1184.76 824.8c0-30.93-6.05-61.22-17.99-90.02-13-31.37-32.18-58.98-56.23-81.53l37.14 89.59c45.23 109.16-6.76 234.79-115.94 280.03-51.38 21.29-107.82 21.91-159.5 1.85-.26-.1-.52-.21-.78-.31-1.25-.49-2.5-.98-3.75-1.5-.02-.01-.03-.01-.05-.02-50.76-20.95-93.55-61.24-116.21-115.84L732.3 915c24.07 58.07 69.3 103.29 127.38 127.32 1.57.65 3.14 1.28 4.72 1.89 5.27 2.04 10.62 3.9 16.03 5.57h138.22c6.99-2.16 13.94-4.65 20.83-7.5 88.25-36.58 145.28-121.95 145.28-217.48z"/><g><path d="M905 272.17a234.674 234.674 0 0 0-75.18-31.09h-1.39c26.72 5.76 52.75 16.28 76.81 31.69l-.24-.6zM640.15 280.62zM646.07 302.48c.75-.59 1.52-1.18 2.28-1.76-.76.58-1.52 1.16-2.28 1.76zM641.53 306.15c1.1-.92 2.22-1.82 3.34-2.72-1.12.9-2.24 1.8-3.34 2.72zM727.68 241.08a236.536 236.536 0 0 0-39.1 12.39 235.11 235.11 0 0 0-44.42 24.3c25.83-17.93 54.72-30.24 84.78-36.69h-1.26zM976.69 552.82c-21.89 52.9-63.08 94.1-115.96 116.01-26.24 10.88-53.83 16.39-81.98 16.39-87.01 0-164.76-51.93-198.06-132.31-36.76-88.68-9.34-188.22 60.77-246.71a214.357 214.357 0 0 0-32.57 33.77c-53.21 68.84-59.64 162.12-16.42 237.62 13.99 24.43 32.47 45.63 54.95 63 45.29 35 101.51 50.28 158.29 42.99 21.81-2.8 42.71-8.8 62.15-17.7l-24.82 31.34c8.69-2.49 17.28-5.47 25.73-8.98 58.08-24.06 103.28-69.3 127.32-127.38 4.56-10.97 8.23-22.15 11.05-33.46l-9.92-24.76-8.44 10.65c-2.72 13.4-6.75 26.63-12.09 39.53zM632.28 286.59l.45-.36c-.16.12-.3.24-.45.36zM636.18 283.57c.53-.4 1.06-.81 1.6-1.21-.54.4-1.07.8-1.6 1.21zM651.89 298.06c-.39.29-.78.57-1.17.86.39-.29.78-.57 1.17-.86zM632.72 286.24zM642.93 278.62c.41-.29.82-.57 1.22-.85-.41.28-.81.56-1.22.85zM637.78 282.36c.79-.59 1.58-1.16 2.37-1.74-.79.57-1.59 1.15-2.37 1.74z"/><path d="M561.29 560.96c-41.1-99.14-9.13-210.66 70.99-274.36a234.535 234.535 0 0 0-40.01 40.53c-58.41 75.59-65.49 178.02-18.03 260.92 15.37 26.84 35.67 50.12 60.34 69.18 49.73 38.45 111.46 55.2 173.81 47.21a235.51 235.51 0 0 0 34.53-7.03l.13-.17a233.171 233.171 0 0 1-64.28 9.02c-95.53-.02-180.9-57.05-217.48-145.3zM648.35 300.71c.79-.6 1.57-1.2 2.37-1.79-.8.59-1.58 1.19-2.37 1.79z"/><path d="M641.47 306.2c.02-.02.04-.03.06-.05-.02.02-.04.03-.06.05zM644.87 303.43l1.2-.96-1.2.96zM728.94 241.08h99.49c-32.93-7.1-66.9-6.99-99.49 0zM988.79 513.3l8.44-10.65-5.03-12.55c-.7 7.76-1.84 15.51-3.41 23.2z"/><path d="M805.72 683.58c-56.78 7.28-113-7.99-158.29-42.99-22.48-17.37-40.97-38.57-54.95-63-43.23-75.51-36.79-168.78 16.42-237.62a214.357 214.357 0 0 1 32.57-33.77c.02-.02.04-.03.06-.05 1.11-.92 2.22-1.82 3.34-2.72l1.2-.96c.76-.59 1.52-1.18 2.28-1.76.78-.6 1.57-1.2 2.37-1.79.39-.29.78-.57 1.17-.86 13.56-9.95 28.5-18.46 44.72-25.18 26.24-10.88 53.82-16.39 81.98-16.39 53.3 0 103.12 19.52 141.39 53.13l-14.74-36.85a233.687 233.687 0 0 0-76.81-31.69h-99.49c-30.06 6.45-58.95 18.75-84.78 36.69-.41.28-.82.57-1.22.85-.93.66-1.86 1.33-2.78 2-.79.58-1.59 1.15-2.37 1.74-.54.4-1.07.81-1.6 1.21-1.16.88-2.31 1.77-3.45 2.67l-.45.36c-80.12 63.71-112.09 175.22-70.99 274.36 36.58 88.25 121.95 145.28 217.48 145.28 21.85 0 43.37-3.03 64.28-9.02l24.82-31.34c-19.45 8.9-40.35 14.91-62.16 17.7z"/></g></svg>