<svg xmlns="http://www.w3.org/2000/svg" viewBox="0 0 150 150" style="enable-background:new 0 0 150 150" xml:space="preserve"><path d="M90.04 149.95c-5.28 0-10.56-1.04-15.59-3.12-10.06-4.16-17.89-11.99-22.06-22.05l2.39-.99c3.9 9.42 11.24 16.75 20.66 20.65 9.42 3.9 19.8 3.9 29.22-.01 9.42-3.9 16.75-11.24 20.65-20.66 3.9-9.42 3.9-19.8-.01-29.22L86.59 1.15l2.39-.99 38.72 93.41c4.17 10.06 4.17 21.13.01 31.19-4.16 10.06-11.99 17.89-22.05 22.06-5.05 2.09-10.33 3.13-15.62 3.13z"/><path d="M95.29 61.63c-3.9 9.42-11.23 16.76-20.65 20.66-9.42 3.9-19.79 3.91-29.22.01C36 78.4 28.66 71.06 24.76 61.65c-8.06-19.44 1.2-41.82 20.65-49.88 4.71-1.95 9.66-2.93 14.62-2.93 4.95 0 9.89.97 14.6 2.92 1.17.49 2.32 1.03 3.42 1.62l-1.43-3.57c-.33-.15-.67-.29-1.01-.43-10.06-4.17-21.13-4.17-31.19 0-20.76 8.6-30.65 32.49-22.04 53.25 4.17 10.06 12 17.89 22.06 22.05a40.732 40.732 0 0 0 15.59 3.12c5.29 0 10.57-1.04 15.6-3.13 10.06-4.17 17.89-12 22.05-22.06.01-.04.03-.07.04-.11l-1.43-3.57c-.3.91-.63 1.81-1 2.7z"/></svg>